<mxfile host="Electron" modified="2024-06-24T13:53:45.783Z" agent="Mozilla/5.0 (Windows NT 10.0; Win64; x64) AppleWebKit/537.36 (KHTML, like Gecko) draw.io/21.6.8 Chrome/114.0.5735.289 Electron/25.5.0 Safari/537.36" etag="kkx1UrQYbazI9h-fBFC4" version="21.6.8" type="device">
  <diagram name="Page-1" id="PXXWk53pj_VzqcTciL4K">
    <mxGraphModel dx="1930" dy="1795" grid="1" gridSize="10" guides="1" tooltips="1" connect="1" arrows="1" fold="1" page="1" pageScale="1" pageWidth="850" pageHeight="1100" math="0" shadow="0">
      <root>
        <mxCell id="0" />
        <mxCell id="1" parent="0" />
        <mxCell id="YfRdmHhutZ6H8zP49Ec_-1" value="" style="rounded=0;whiteSpace=wrap;html=1;movable=1;resizable=1;rotatable=1;deletable=1;editable=1;locked=0;connectable=1;" parent="1" vertex="1">
          <mxGeometry x="-485" y="-1040" width="220" height="1690" as="geometry" />
        </mxCell>
        <mxCell id="YfRdmHhutZ6H8zP49Ec_-11" value="Bloggers" style="shape=umlActor;verticalLabelPosition=bottom;verticalAlign=top;html=1;outlineConnect=0;fontSize=16;" parent="1" vertex="1">
          <mxGeometry x="-780" y="-250" width="90" height="180" as="geometry" />
        </mxCell>
        <mxCell id="toZdKbl6UAY-xhzpBMlc-20" value="&lt;font style=&quot;font-size: 21px;&quot;&gt;Blogging System&lt;/font&gt;" style="text;html=1;strokeColor=none;fillColor=none;align=center;verticalAlign=middle;whiteSpace=wrap;rounded=0;strokeWidth=10;" parent="1" vertex="1">
          <mxGeometry x="-405" y="-1020" width="60" height="30" as="geometry" />
        </mxCell>
        <mxCell id="YfRdmHhutZ6H8zP49Ec_-4" value="Follow/Unfollow other users" style="ellipse;whiteSpace=wrap;html=1;fontSize=18;" parent="1" vertex="1">
          <mxGeometry x="-446.25" y="-50" width="142.5" height="95" as="geometry" />
        </mxCell>
        <mxCell id="YfRdmHhutZ6H8zP49Ec_-3" value="Login/Logout" style="ellipse;whiteSpace=wrap;html=1;fontSize=18;" parent="1" vertex="1">
          <mxGeometry x="-450" y="-740" width="150" height="100" as="geometry" />
        </mxCell>
        <mxCell id="YfRdmHhutZ6H8zP49Ec_-6" value="Like/Unlike Blogs" style="ellipse;whiteSpace=wrap;html=1;fontSize=18;" parent="1" vertex="1">
          <mxGeometry x="-450" y="-160" width="150" height="100" as="geometry" />
        </mxCell>
        <mxCell id="toZdKbl6UAY-xhzpBMlc-13" value="Hide/Unhide User Blogs" style="ellipse;whiteSpace=wrap;html=1;fontSize=18;" parent="1" vertex="1">
          <mxGeometry x="-449.995" y="-390" width="149.99" height="100" as="geometry" />
        </mxCell>
        <mxCell id="xuKyHUnO-eBhHFJ57BG4-125" style="edgeStyle=orthogonalEdgeStyle;rounded=0;orthogonalLoop=1;jettySize=auto;html=1;exitX=0.5;exitY=1;exitDx=0;exitDy=0;" parent="1" edge="1">
          <mxGeometry relative="1" as="geometry">
            <mxPoint x="-278.78" y="-699.9999999999998" as="sourcePoint" />
            <mxPoint x="-278.78" y="-699.9999999999998" as="targetPoint" />
          </mxGeometry>
        </mxCell>
        <mxCell id="ajALaZwcTu_M5yNKN79C-1" value="Create/View/Edit&lt;br style=&quot;font-size: 18px;&quot;&gt;Delete&lt;br style=&quot;font-size: 18px;&quot;&gt;Account" style="ellipse;whiteSpace=wrap;html=1;fontSize=18;" vertex="1" parent="1">
          <mxGeometry x="-450" y="-960" width="150" height="100" as="geometry" />
        </mxCell>
        <mxCell id="ajALaZwcTu_M5yNKN79C-4" value="Create/View/Edit&lt;br style=&quot;font-size: 18px;&quot;&gt;Delete&lt;br style=&quot;font-size: 18px;&quot;&gt;Blogs" style="ellipse;whiteSpace=wrap;html=1;fontSize=18;" vertex="1" parent="1">
          <mxGeometry x="-450" y="-630" width="150" height="100" as="geometry" />
        </mxCell>
        <mxCell id="ajALaZwcTu_M5yNKN79C-5" value="Lock/UnlockUser Blogs" style="ellipse;whiteSpace=wrap;html=1;fontSize=18;" vertex="1" parent="1">
          <mxGeometry x="-449.995" y="-270" width="149.99" height="100" as="geometry" />
        </mxCell>
        <mxCell id="ajALaZwcTu_M5yNKN79C-6" value="Create/View/Edit&lt;br style=&quot;font-size: 18px;&quot;&gt;Delete/Reply to&lt;br style=&quot;font-size: 18px;&quot;&gt;Comments" style="ellipse;whiteSpace=wrap;html=1;fontSize=18;" vertex="1" parent="1">
          <mxGeometry x="-450" y="60" width="150" height="100" as="geometry" />
        </mxCell>
        <mxCell id="ajALaZwcTu_M5yNKN79C-7" value="Report/Unreport&lt;br style=&quot;font-size: 18px;&quot;&gt;Blogs" style="ellipse;whiteSpace=wrap;html=1;fontSize=18;" vertex="1" parent="1">
          <mxGeometry x="-450" y="290" width="150" height="100" as="geometry" />
        </mxCell>
        <mxCell id="ajALaZwcTu_M5yNKN79C-8" value="Promote/Demote Users" style="ellipse;whiteSpace=wrap;html=1;fontSize=18;" vertex="1" parent="1">
          <mxGeometry x="-450" y="530" width="150" height="100" as="geometry" />
        </mxCell>
        <mxCell id="ajALaZwcTu_M5yNKN79C-9" value="Delete Other User&#39;s&lt;br style=&quot;border-color: var(--border-color); font-size: 18px;&quot;&gt;Account" style="ellipse;whiteSpace=wrap;html=1;fontSize=18;" vertex="1" parent="1">
          <mxGeometry x="-450" y="-850" width="150" height="100" as="geometry" />
        </mxCell>
        <mxCell id="ajALaZwcTu_M5yNKN79C-10" value="Delete Other User&#39;s&lt;br style=&quot;border-color: var(--border-color); font-size: 18px;&quot;&gt;Blog" style="ellipse;whiteSpace=wrap;html=1;fontSize=18;" vertex="1" parent="1">
          <mxGeometry x="-450" y="-510" width="150" height="100" as="geometry" />
        </mxCell>
        <mxCell id="ajALaZwcTu_M5yNKN79C-11" value="Delete Other User&#39;s&lt;br style=&quot;border-color: var(--border-color); font-size: 18px;&quot;&gt;Comments" style="ellipse;whiteSpace=wrap;html=1;fontSize=18;" vertex="1" parent="1">
          <mxGeometry x="-450" y="180" width="150" height="100" as="geometry" />
        </mxCell>
        <mxCell id="ajALaZwcTu_M5yNKN79C-12" value="Strike Users" style="ellipse;whiteSpace=wrap;html=1;fontSize=18;" vertex="1" parent="1">
          <mxGeometry x="-450" y="400" width="150" height="100" as="geometry" />
        </mxCell>
        <mxCell id="ajALaZwcTu_M5yNKN79C-16" value="" style="endArrow=none;html=1;rounded=0;entryX=0;entryY=0.5;entryDx=0;entryDy=0;exitX=1;exitY=0.3333333333333333;exitDx=0;exitDy=0;exitPerimeter=0;" edge="1" parent="1" source="YfRdmHhutZ6H8zP49Ec_-11" target="ajALaZwcTu_M5yNKN79C-1">
          <mxGeometry width="50" height="50" relative="1" as="geometry">
            <mxPoint x="-650" y="-240" as="sourcePoint" />
            <mxPoint x="-600" y="-290" as="targetPoint" />
          </mxGeometry>
        </mxCell>
        <mxCell id="ajALaZwcTu_M5yNKN79C-17" value="" style="endArrow=none;html=1;rounded=0;entryX=0;entryY=0.5;entryDx=0;entryDy=0;exitX=1;exitY=0.3333333333333333;exitDx=0;exitDy=0;exitPerimeter=0;" edge="1" parent="1" source="YfRdmHhutZ6H8zP49Ec_-11" target="YfRdmHhutZ6H8zP49Ec_-3">
          <mxGeometry width="50" height="50" relative="1" as="geometry">
            <mxPoint x="-640" y="-230" as="sourcePoint" />
            <mxPoint x="-475" y="-900" as="targetPoint" />
          </mxGeometry>
        </mxCell>
        <mxCell id="ajALaZwcTu_M5yNKN79C-18" value="" style="endArrow=none;html=1;rounded=0;entryX=0;entryY=0.5;entryDx=0;entryDy=0;exitX=1;exitY=0.3333333333333333;exitDx=0;exitDy=0;exitPerimeter=0;" edge="1" parent="1" source="YfRdmHhutZ6H8zP49Ec_-11" target="ajALaZwcTu_M5yNKN79C-4">
          <mxGeometry width="50" height="50" relative="1" as="geometry">
            <mxPoint x="-630" y="-220" as="sourcePoint" />
            <mxPoint x="-475" y="-680" as="targetPoint" />
          </mxGeometry>
        </mxCell>
        <mxCell id="ajALaZwcTu_M5yNKN79C-19" value="" style="endArrow=none;html=1;rounded=0;entryX=0;entryY=0.5;entryDx=0;entryDy=0;exitX=1;exitY=0.3333333333333333;exitDx=0;exitDy=0;exitPerimeter=0;" edge="1" parent="1" source="YfRdmHhutZ6H8zP49Ec_-11" target="toZdKbl6UAY-xhzpBMlc-13">
          <mxGeometry width="50" height="50" relative="1" as="geometry">
            <mxPoint x="-620" y="-210" as="sourcePoint" />
            <mxPoint x="-475" y="-570" as="targetPoint" />
          </mxGeometry>
        </mxCell>
        <mxCell id="ajALaZwcTu_M5yNKN79C-20" value="" style="endArrow=none;html=1;rounded=0;entryX=0;entryY=0.5;entryDx=0;entryDy=0;exitX=1;exitY=0.3333333333333333;exitDx=0;exitDy=0;exitPerimeter=0;" edge="1" parent="1" source="YfRdmHhutZ6H8zP49Ec_-11" target="ajALaZwcTu_M5yNKN79C-5">
          <mxGeometry width="50" height="50" relative="1" as="geometry">
            <mxPoint x="-610" y="-200" as="sourcePoint" />
            <mxPoint x="-475" y="-330" as="targetPoint" />
          </mxGeometry>
        </mxCell>
        <mxCell id="ajALaZwcTu_M5yNKN79C-21" value="" style="endArrow=none;html=1;rounded=0;entryX=0;entryY=0.5;entryDx=0;entryDy=0;exitX=1;exitY=0.3333333333333333;exitDx=0;exitDy=0;exitPerimeter=0;" edge="1" parent="1" source="YfRdmHhutZ6H8zP49Ec_-11" target="YfRdmHhutZ6H8zP49Ec_-6">
          <mxGeometry width="50" height="50" relative="1" as="geometry">
            <mxPoint x="-600" y="-190" as="sourcePoint" />
            <mxPoint x="-475" y="-210" as="targetPoint" />
          </mxGeometry>
        </mxCell>
        <mxCell id="ajALaZwcTu_M5yNKN79C-22" value="" style="endArrow=none;html=1;rounded=0;entryX=0;entryY=0.5;entryDx=0;entryDy=0;exitX=1;exitY=0.3333333333333333;exitDx=0;exitDy=0;exitPerimeter=0;" edge="1" parent="1" source="YfRdmHhutZ6H8zP49Ec_-11" target="YfRdmHhutZ6H8zP49Ec_-4">
          <mxGeometry width="50" height="50" relative="1" as="geometry">
            <mxPoint x="-610" y="-160" as="sourcePoint" />
            <mxPoint x="-475" y="-100" as="targetPoint" />
          </mxGeometry>
        </mxCell>
        <mxCell id="ajALaZwcTu_M5yNKN79C-23" value="" style="endArrow=none;html=1;rounded=0;entryX=0;entryY=0.5;entryDx=0;entryDy=0;exitX=1;exitY=0.3333333333333333;exitDx=0;exitDy=0;exitPerimeter=0;" edge="1" parent="1" source="YfRdmHhutZ6H8zP49Ec_-11" target="ajALaZwcTu_M5yNKN79C-6">
          <mxGeometry width="50" height="50" relative="1" as="geometry">
            <mxPoint x="-635" y="-120" as="sourcePoint" />
            <mxPoint x="-506" y="38" as="targetPoint" />
          </mxGeometry>
        </mxCell>
        <mxCell id="ajALaZwcTu_M5yNKN79C-24" value="" style="endArrow=none;html=1;rounded=0;entryX=0;entryY=0.5;entryDx=0;entryDy=0;exitX=1;exitY=0.3333333333333333;exitDx=0;exitDy=0;exitPerimeter=0;" edge="1" parent="1" source="YfRdmHhutZ6H8zP49Ec_-11" target="ajALaZwcTu_M5yNKN79C-7">
          <mxGeometry width="50" height="50" relative="1" as="geometry">
            <mxPoint x="-640" y="-50" as="sourcePoint" />
            <mxPoint x="-490" y="180" as="targetPoint" />
          </mxGeometry>
        </mxCell>
        <mxCell id="ajALaZwcTu_M5yNKN79C-25" value="Bloggers" style="shape=umlActor;verticalLabelPosition=bottom;verticalAlign=top;html=1;outlineConnect=0;fontSize=16;flipH=1;" vertex="1" parent="1">
          <mxGeometry x="-160" y="-510" width="90" height="180" as="geometry" />
        </mxCell>
        <mxCell id="ajALaZwcTu_M5yNKN79C-26" value="" style="endArrow=none;html=1;rounded=0;entryX=1;entryY=0.5;entryDx=0;entryDy=0;exitX=1;exitY=0.3333333333333333;exitDx=0;exitDy=0;exitPerimeter=0;" edge="1" parent="1" source="ajALaZwcTu_M5yNKN79C-25" target="ajALaZwcTu_M5yNKN79C-1">
          <mxGeometry width="50" height="50" relative="1" as="geometry">
            <mxPoint x="75" y="-640" as="sourcePoint" />
            <mxPoint x="-90" y="-1310" as="targetPoint" />
          </mxGeometry>
        </mxCell>
        <mxCell id="ajALaZwcTu_M5yNKN79C-27" value="" style="endArrow=none;html=1;rounded=0;entryX=1;entryY=0.5;entryDx=0;entryDy=0;exitX=1;exitY=0.3333333333333333;exitDx=0;exitDy=0;exitPerimeter=0;" edge="1" parent="1" source="ajALaZwcTu_M5yNKN79C-25" target="ajALaZwcTu_M5yNKN79C-9">
          <mxGeometry width="50" height="50" relative="1" as="geometry">
            <mxPoint x="65" y="-630" as="sourcePoint" />
            <mxPoint x="-90" y="-1090" as="targetPoint" />
          </mxGeometry>
        </mxCell>
        <mxCell id="ajALaZwcTu_M5yNKN79C-28" value="" style="endArrow=none;html=1;rounded=0;entryX=1;entryY=0.5;entryDx=0;entryDy=0;exitX=1;exitY=0.3333333333333333;exitDx=0;exitDy=0;exitPerimeter=0;" edge="1" parent="1" source="ajALaZwcTu_M5yNKN79C-25" target="YfRdmHhutZ6H8zP49Ec_-3">
          <mxGeometry width="50" height="50" relative="1" as="geometry">
            <mxPoint x="55" y="-620" as="sourcePoint" />
            <mxPoint x="-90" y="-980" as="targetPoint" />
          </mxGeometry>
        </mxCell>
        <mxCell id="ajALaZwcTu_M5yNKN79C-29" value="" style="endArrow=none;html=1;rounded=0;entryX=1;entryY=0.5;entryDx=0;entryDy=0;exitX=1;exitY=0.3333333333333333;exitDx=0;exitDy=0;exitPerimeter=0;" edge="1" parent="1" source="ajALaZwcTu_M5yNKN79C-25" target="ajALaZwcTu_M5yNKN79C-4">
          <mxGeometry width="50" height="50" relative="1" as="geometry">
            <mxPoint x="45" y="-610" as="sourcePoint" />
            <mxPoint x="-90" y="-740" as="targetPoint" />
          </mxGeometry>
        </mxCell>
        <mxCell id="ajALaZwcTu_M5yNKN79C-30" value="" style="endArrow=none;html=1;rounded=0;entryX=1;entryY=0.5;entryDx=0;entryDy=0;exitX=1;exitY=0.3333333333333333;exitDx=0;exitDy=0;exitPerimeter=0;" edge="1" parent="1" source="ajALaZwcTu_M5yNKN79C-25" target="YfRdmHhutZ6H8zP49Ec_-4">
          <mxGeometry width="50" height="50" relative="1" as="geometry">
            <mxPoint x="35" y="-600" as="sourcePoint" />
            <mxPoint x="-90" y="-620" as="targetPoint" />
          </mxGeometry>
        </mxCell>
        <mxCell id="ajALaZwcTu_M5yNKN79C-31" value="" style="endArrow=none;html=1;rounded=0;entryX=1;entryY=0.5;entryDx=0;entryDy=0;exitX=1;exitY=0.3333333333333333;exitDx=0;exitDy=0;exitPerimeter=0;" edge="1" parent="1" source="ajALaZwcTu_M5yNKN79C-25" target="YfRdmHhutZ6H8zP49Ec_-6">
          <mxGeometry width="50" height="50" relative="1" as="geometry">
            <mxPoint x="25" y="-590" as="sourcePoint" />
            <mxPoint x="-90" y="-510" as="targetPoint" />
          </mxGeometry>
        </mxCell>
        <mxCell id="ajALaZwcTu_M5yNKN79C-32" value="" style="endArrow=none;html=1;rounded=0;entryX=1;entryY=0.5;entryDx=0;entryDy=0;exitX=1;exitY=0.3333333333333333;exitDx=0;exitDy=0;exitPerimeter=0;" edge="1" parent="1" source="ajALaZwcTu_M5yNKN79C-25" target="ajALaZwcTu_M5yNKN79C-5">
          <mxGeometry width="50" height="50" relative="1" as="geometry">
            <mxPoint x="39" y="-560" as="sourcePoint" />
            <mxPoint x="-90" y="-402" as="targetPoint" />
          </mxGeometry>
        </mxCell>
        <mxCell id="ajALaZwcTu_M5yNKN79C-33" value="" style="endArrow=none;html=1;rounded=0;entryX=1;entryY=0.5;entryDx=0;entryDy=0;exitX=1;exitY=0.3333333333333333;exitDx=0;exitDy=0;exitPerimeter=0;" edge="1" parent="1" source="ajALaZwcTu_M5yNKN79C-25" target="toZdKbl6UAY-xhzpBMlc-13">
          <mxGeometry width="50" height="50" relative="1" as="geometry">
            <mxPoint x="60" y="-520" as="sourcePoint" />
            <mxPoint x="-90" y="-290" as="targetPoint" />
          </mxGeometry>
        </mxCell>
        <mxCell id="ajALaZwcTu_M5yNKN79C-34" value="" style="endArrow=none;html=1;rounded=0;entryX=1;entryY=0.5;entryDx=0;entryDy=0;exitX=1;exitY=0.3333333333333333;exitDx=0;exitDy=0;exitPerimeter=0;" edge="1" parent="1" source="ajALaZwcTu_M5yNKN79C-25" target="ajALaZwcTu_M5yNKN79C-10">
          <mxGeometry width="50" height="50" relative="1" as="geometry">
            <mxPoint x="65" y="-450" as="sourcePoint" />
            <mxPoint x="-90" y="-60" as="targetPoint" />
          </mxGeometry>
        </mxCell>
        <mxCell id="ajALaZwcTu_M5yNKN79C-35" value="" style="endArrow=none;html=1;rounded=0;exitX=1;exitY=0.5;exitDx=0;exitDy=0;entryX=1;entryY=0.3333333333333333;entryDx=0;entryDy=0;entryPerimeter=0;" edge="1" parent="1" source="ajALaZwcTu_M5yNKN79C-6" target="ajALaZwcTu_M5yNKN79C-25">
          <mxGeometry width="50" height="50" relative="1" as="geometry">
            <mxPoint x="-160" y="10" as="sourcePoint" />
            <mxPoint x="-110" y="-40" as="targetPoint" />
          </mxGeometry>
        </mxCell>
        <mxCell id="ajALaZwcTu_M5yNKN79C-36" value="" style="endArrow=none;html=1;rounded=0;exitX=1;exitY=0.5;exitDx=0;exitDy=0;entryX=1;entryY=0.3333333333333333;entryDx=0;entryDy=0;entryPerimeter=0;" edge="1" parent="1" source="ajALaZwcTu_M5yNKN79C-11" target="ajALaZwcTu_M5yNKN79C-25">
          <mxGeometry width="50" height="50" relative="1" as="geometry">
            <mxPoint x="-230" y="180" as="sourcePoint" />
            <mxPoint x="-180" y="130" as="targetPoint" />
          </mxGeometry>
        </mxCell>
        <mxCell id="ajALaZwcTu_M5yNKN79C-37" value="" style="endArrow=none;html=1;rounded=0;exitX=1;exitY=0.5;exitDx=0;exitDy=0;entryX=1;entryY=0.3333333333333333;entryDx=0;entryDy=0;entryPerimeter=0;" edge="1" parent="1" source="ajALaZwcTu_M5yNKN79C-7" target="ajALaZwcTu_M5yNKN79C-25">
          <mxGeometry width="50" height="50" relative="1" as="geometry">
            <mxPoint x="-130" y="310" as="sourcePoint" />
            <mxPoint x="-80" y="260" as="targetPoint" />
          </mxGeometry>
        </mxCell>
        <mxCell id="ajALaZwcTu_M5yNKN79C-38" value="" style="endArrow=none;html=1;rounded=0;exitX=1;exitY=0.5;exitDx=0;exitDy=0;entryX=1;entryY=0.3333333333333333;entryDx=0;entryDy=0;entryPerimeter=0;" edge="1" parent="1" source="ajALaZwcTu_M5yNKN79C-12" target="ajALaZwcTu_M5yNKN79C-25">
          <mxGeometry width="50" height="50" relative="1" as="geometry">
            <mxPoint x="-230" y="440" as="sourcePoint" />
            <mxPoint x="-180" y="390" as="targetPoint" />
          </mxGeometry>
        </mxCell>
        <mxCell id="ajALaZwcTu_M5yNKN79C-39" value="Bloggers" style="shape=umlActor;verticalLabelPosition=bottom;verticalAlign=top;html=1;outlineConnect=0;fontSize=16;flipH=1;" vertex="1" parent="1">
          <mxGeometry x="-160" y="-80" width="90" height="180" as="geometry" />
        </mxCell>
        <mxCell id="ajALaZwcTu_M5yNKN79C-40" value="" style="endArrow=none;html=1;rounded=0;entryX=1;entryY=0.5;entryDx=0;entryDy=0;exitX=1;exitY=0.3333333333333333;exitDx=0;exitDy=0;exitPerimeter=0;" edge="1" parent="1" source="ajALaZwcTu_M5yNKN79C-39" target="ajALaZwcTu_M5yNKN79C-1">
          <mxGeometry width="50" height="50" relative="1" as="geometry">
            <mxPoint x="44" y="130" as="sourcePoint" />
            <mxPoint x="-366" y="-140" as="targetPoint" />
          </mxGeometry>
        </mxCell>
        <mxCell id="ajALaZwcTu_M5yNKN79C-41" value="" style="endArrow=none;html=1;rounded=0;entryX=1;entryY=0.5;entryDx=0;entryDy=0;exitX=1;exitY=0.3333333333333333;exitDx=0;exitDy=0;exitPerimeter=0;" edge="1" parent="1" source="ajALaZwcTu_M5yNKN79C-39" target="YfRdmHhutZ6H8zP49Ec_-3">
          <mxGeometry width="50" height="50" relative="1" as="geometry">
            <mxPoint x="34" y="140" as="sourcePoint" />
            <mxPoint x="-366" y="-30" as="targetPoint" />
          </mxGeometry>
        </mxCell>
        <mxCell id="ajALaZwcTu_M5yNKN79C-42" value="" style="endArrow=none;html=1;rounded=0;entryX=1;entryY=0.5;entryDx=0;entryDy=0;exitX=1;exitY=0.3333333333333333;exitDx=0;exitDy=0;exitPerimeter=0;" edge="1" parent="1" source="ajALaZwcTu_M5yNKN79C-39" target="ajALaZwcTu_M5yNKN79C-4">
          <mxGeometry width="50" height="50" relative="1" as="geometry">
            <mxPoint x="24" y="150" as="sourcePoint" />
            <mxPoint x="-366" y="80" as="targetPoint" />
          </mxGeometry>
        </mxCell>
        <mxCell id="ajALaZwcTu_M5yNKN79C-43" value="" style="endArrow=none;html=1;rounded=0;entryX=1;entryY=0.5;entryDx=0;entryDy=0;exitX=1;exitY=0.3333333333333333;exitDx=0;exitDy=0;exitPerimeter=0;" edge="1" parent="1" source="ajALaZwcTu_M5yNKN79C-39" target="ajALaZwcTu_M5yNKN79C-10">
          <mxGeometry width="50" height="50" relative="1" as="geometry">
            <mxPoint x="14" y="160" as="sourcePoint" />
            <mxPoint x="-366" y="190" as="targetPoint" />
          </mxGeometry>
        </mxCell>
        <mxCell id="ajALaZwcTu_M5yNKN79C-44" value="" style="endArrow=none;html=1;rounded=0;entryX=1;entryY=0.5;entryDx=0;entryDy=0;exitX=1;exitY=0.3333333333333333;exitDx=0;exitDy=0;exitPerimeter=0;" edge="1" parent="1" source="ajALaZwcTu_M5yNKN79C-39" target="ajALaZwcTu_M5yNKN79C-6">
          <mxGeometry width="50" height="50" relative="1" as="geometry">
            <mxPoint x="4" y="170" as="sourcePoint" />
            <mxPoint x="-370" y="768" as="targetPoint" />
          </mxGeometry>
        </mxCell>
        <mxCell id="ajALaZwcTu_M5yNKN79C-45" value="" style="endArrow=none;html=1;rounded=0;entryX=1;entryY=0.5;entryDx=0;entryDy=0;exitX=1;exitY=0.3333333333333333;exitDx=0;exitDy=0;exitPerimeter=0;" edge="1" parent="1" source="ajALaZwcTu_M5yNKN79C-39" target="YfRdmHhutZ6H8zP49Ec_-4">
          <mxGeometry width="50" height="50" relative="1" as="geometry">
            <mxPoint x="-6" y="180" as="sourcePoint" />
            <mxPoint x="-366" y="660" as="targetPoint" />
          </mxGeometry>
        </mxCell>
        <mxCell id="ajALaZwcTu_M5yNKN79C-46" value="" style="endArrow=none;html=1;rounded=0;entryX=1;entryY=0.5;entryDx=0;entryDy=0;exitX=1;exitY=0.3333333333333333;exitDx=0;exitDy=0;exitPerimeter=0;" edge="1" parent="1" source="ajALaZwcTu_M5yNKN79C-39" target="YfRdmHhutZ6H8zP49Ec_-6">
          <mxGeometry width="50" height="50" relative="1" as="geometry">
            <mxPoint x="8" y="210" as="sourcePoint" />
            <mxPoint x="-366" y="550" as="targetPoint" />
          </mxGeometry>
        </mxCell>
        <mxCell id="ajALaZwcTu_M5yNKN79C-47" value="" style="endArrow=none;html=1;rounded=0;entryX=1;entryY=0.5;entryDx=0;entryDy=0;exitX=1;exitY=0.3333333333333333;exitDx=0;exitDy=0;exitPerimeter=0;" edge="1" parent="1" source="ajALaZwcTu_M5yNKN79C-39" target="ajALaZwcTu_M5yNKN79C-5">
          <mxGeometry width="50" height="50" relative="1" as="geometry">
            <mxPoint x="29" y="250" as="sourcePoint" />
            <mxPoint x="-366" y="430" as="targetPoint" />
          </mxGeometry>
        </mxCell>
        <mxCell id="ajALaZwcTu_M5yNKN79C-48" value="" style="endArrow=none;html=1;rounded=0;entryX=1;entryY=0.5;entryDx=0;entryDy=0;exitX=1;exitY=0.3333333333333333;exitDx=0;exitDy=0;exitPerimeter=0;" edge="1" parent="1" source="ajALaZwcTu_M5yNKN79C-39" target="toZdKbl6UAY-xhzpBMlc-13">
          <mxGeometry width="50" height="50" relative="1" as="geometry">
            <mxPoint x="34" y="320" as="sourcePoint" />
            <mxPoint x="-366" y="310" as="targetPoint" />
          </mxGeometry>
        </mxCell>
        <mxCell id="ajALaZwcTu_M5yNKN79C-49" value="" style="endArrow=none;html=1;rounded=0;exitX=1;exitY=0.5;exitDx=0;exitDy=0;entryX=1;entryY=0.3333333333333333;entryDx=0;entryDy=0;entryPerimeter=0;" edge="1" parent="1" target="ajALaZwcTu_M5yNKN79C-39" source="ajALaZwcTu_M5yNKN79C-11">
          <mxGeometry width="50" height="50" relative="1" as="geometry">
            <mxPoint x="-366" y="880" as="sourcePoint" />
            <mxPoint x="-141" y="730" as="targetPoint" />
          </mxGeometry>
        </mxCell>
        <mxCell id="ajALaZwcTu_M5yNKN79C-50" value="" style="endArrow=none;html=1;rounded=0;exitX=1;exitY=0.5;exitDx=0;exitDy=0;entryX=1;entryY=0.3333333333333333;entryDx=0;entryDy=0;entryPerimeter=0;" edge="1" parent="1" target="ajALaZwcTu_M5yNKN79C-39" source="ajALaZwcTu_M5yNKN79C-7">
          <mxGeometry width="50" height="50" relative="1" as="geometry">
            <mxPoint x="-366" y="1000" as="sourcePoint" />
            <mxPoint x="-211" y="900" as="targetPoint" />
          </mxGeometry>
        </mxCell>
        <mxCell id="ajALaZwcTu_M5yNKN79C-51" value="" style="endArrow=none;html=1;rounded=0;entryX=1;entryY=0.3333333333333333;entryDx=0;entryDy=0;entryPerimeter=0;exitX=1;exitY=0.5;exitDx=0;exitDy=0;" edge="1" parent="1" target="ajALaZwcTu_M5yNKN79C-39" source="ajALaZwcTu_M5yNKN79C-12">
          <mxGeometry width="50" height="50" relative="1" as="geometry">
            <mxPoint x="-260" y="417.14285714285717" as="sourcePoint" />
            <mxPoint x="-111" y="1030" as="targetPoint" />
          </mxGeometry>
        </mxCell>
        <mxCell id="ajALaZwcTu_M5yNKN79C-52" value="" style="endArrow=none;html=1;rounded=0;exitX=1;exitY=0.5;exitDx=0;exitDy=0;entryX=1;entryY=0.3333333333333333;entryDx=0;entryDy=0;entryPerimeter=0;" edge="1" parent="1" target="ajALaZwcTu_M5yNKN79C-39" source="ajALaZwcTu_M5yNKN79C-8">
          <mxGeometry width="50" height="50" relative="1" as="geometry">
            <mxPoint x="-366" y="1220" as="sourcePoint" />
            <mxPoint x="-211" y="1160" as="targetPoint" />
          </mxGeometry>
        </mxCell>
        <mxCell id="ajALaZwcTu_M5yNKN79C-53" value="" style="endArrow=none;html=1;rounded=0;entryX=1;entryY=0.5;entryDx=0;entryDy=0;exitX=1;exitY=0.3333333333333333;exitDx=0;exitDy=0;exitPerimeter=0;" edge="1" parent="1" source="ajALaZwcTu_M5yNKN79C-39" target="ajALaZwcTu_M5yNKN79C-9">
          <mxGeometry width="50" height="50" relative="1" as="geometry">
            <mxPoint x="-190" y="-740" as="sourcePoint" />
            <mxPoint x="-140" y="-790" as="targetPoint" />
          </mxGeometry>
        </mxCell>
      </root>
    </mxGraphModel>
  </diagram>
</mxfile>
